HIERARCHY
ROOT joint_Root
{
	OFFSET 0.0 0.0 0.0
	CHANNELS 6 Xposition Yposition Zposition Zrotation Xrotation Yrotation 
	JOINT Hips
	{
		OFFSET 4.5925 91.4895 -427.239
		CHANNELS 6 Xposition Yposition Zposition Zrotation Xrotation Yrotation 
		JOINT Spine
		{
			OFFSET 15.7357 0.0 0.0
			CHANNELS 6 Xposition Yposition Zposition Zrotation Xrotation Yrotation 
			JOINT Chest
			{
				OFFSET 8.98455 -0.406207 0.0
				CHANNELS 6 Xposition Yposition Zposition Zrotation Xrotation Yrotation 
				JOINT Neck
				{
					OFFSET 16.3773 0.0 0.0
					CHANNELS 6 Xposition Yposition Zposition Zrotation Xrotation Yrotation 
					JOINT Head
					{
						OFFSET 6.45672 0.0 0.0
						CHANNELS 6 Xposition Yposition Zposition Zrotation Xrotation Yrotation 
						End Site
						{
							OFFSET 0.0 0.0 0.0
						}
					}
				}
				JOINT Shoulder_L
				{
					OFFSET 12.9942 -0.242716 4.98039
					CHANNELS 6 Xposition Yposition Zposition Zrotation Xrotation Yrotation 
					JOINT UpperArm_L
					{
						OFFSET 5.34809 0.0 0.0
						CHANNELS 6 Xposition Yposition Zposition Zrotation Xrotation Yrotation 
						JOINT LowerArm_L
						{
							OFFSET 24.3286 1.87007e-05 0.0
							CHANNELS 6 Xposition Yposition Zposition Zrotation Xrotation Yrotation 
							JOINT Hand_L
							{
								OFFSET 22.2916 0.0 0.0
								CHANNELS 6 Xposition Yposition Zposition Zrotation Xrotation Yrotation 
								End Site
								{
									OFFSET 0.0 0.0 0.0
								}
							}
						}
					}
				}
				JOINT Shoulder_R
				{
					OFFSET 12.9945 -0.242716 -4.98039
					CHANNELS 6 Xposition Yposition Zposition Zrotation Xrotation Yrotation 
					JOINT UpperArm_R
					{
						OFFSET -5.34813 0.0 0.0
						CHANNELS 6 Xposition Yposition Zposition Zrotation Xrotation Yrotation 
						JOINT LowerArm_R
						{
							OFFSET -24.3289 0.000322201 0.0
							CHANNELS 6 Xposition Yposition Zposition Zrotation Xrotation Yrotation 
							JOINT Hand_R
							{
								OFFSET -22.2915 -0.000108084 0.0
								CHANNELS 6 Xposition Yposition Zposition Zrotation Xrotation Yrotation 
								End Site
								{
									OFFSET 0.0 0.0 0.0
								}
							}
						}
					}
				}
			}
		}
		JOINT UpperLeg_L
		{
			OFFSET -2.19248 -6.46944 0.0
			CHANNELS 6 Xposition Yposition Zposition Zrotation Xrotation Yrotation 
			JOINT LowerLeg_L
			{
				OFFSET 39.0811 0.0 -1.23785e-05
				CHANNELS 6 Xposition Yposition Zposition Zrotation Xrotation Yrotation 
				JOINT Foot_L
				{
					OFFSET 40.9854 0.0 -1.26872e-05
					CHANNELS 6 Xposition Yposition Zposition Zrotation Xrotation Yrotation 
					JOINT Toes_L
					{
						OFFSET 11.7543 0.0 0.0
						CHANNELS 6 Xposition Yposition Zposition Zrotation Xrotation Yrotation 
						End Site
						{
							OFFSET 0.0 0.0 0.0
						}
					}
				}
			}
		}
		JOINT UpperLeg_R
		{
			OFFSET -2.19251 6.46944 0.0
			CHANNELS 6 Xposition Yposition Zposition Zrotation Xrotation Yrotation 
			JOINT LowerLeg_R
			{
				OFFSET -39.0811 -0.00228153 -0.0401928
				CHANNELS 6 Xposition Yposition Zposition Zrotation Xrotation Yrotation 
				JOINT Foot_R
				{
					OFFSET -40.9854 0.0 0.0
					CHANNELS 6 Xposition Yposition Zposition Zrotation Xrotation Yrotation 
					JOINT Toes_R
					{
						OFFSET -11.7543 0.0 0.0
						CHANNELS 6 Xposition Yposition Zposition Zrotation Xrotation Yrotation 
						End Site
						{
							OFFSET 0.0 0.0 0.0
						}
					}
				}
			}
		}
	}
}
MOTION
Frames:	8
Frame Time:	0.0333333
0.000000 0.000000 0.000000 0.000000 0.000000 -0.000000 134.427000 88.197000 -42.045100 89.452700 -1.463400 4.787850 15.735700 0.000005 -0.000001 89.041000 80.271200 -90.225100 8.984550 -0.406207 -0.000000 11.686400 -0.363412 -2.330340 16.377300 -0.000001 -0.000001 3.702010 -4.744650 1.208870 6.456720 -0.000001 -0.000000 -1.472510 -5.199690 1.559070 12.994200 -0.242716 4.980390 -91.257800 4.156490 -73.147000 5.348090 -0.000007 -0.000001 -60.652100 34.579100 -21.583300 24.328600 0.000019 0.000005 7.976960 21.749900 -20.715300 22.291600 -0.000001 0.000005 10.893300 5.309440 -0.191643 12.994500 -0.242716 -4.980390 88.497500 8.870900 -80.347000 -5.348130 -0.000001 -0.000004 -64.396900 32.172700 -10.755200 -24.328900 0.000322 -0.000009 1.313920 2.844880 -24.821200 -22.291500 -0.000108 -0.000004 15.107400 5.458890 -4.960470 -2.192480 -6.469440 -0.000000 179.057000 -6.739650 -13.711000 39.081100 -0.000007 -0.000012 -0.329288 0.349738 43.275700 40.985400 -0.000006 -0.000013 2.115260 -2.748860 -75.325200 11.754300 -0.000000 0.000003 -0.000169 -0.001607 -16.638500 -2.192510 6.469440 -0.000001 175.368000 10.387300 167.066000 -39.081100 -0.002282 -0.040193 0.113542 -0.050447 65.438200 -40.985400 0.000008 0.000006 4.883630 -5.398520 -63.083500 -11.754300 -0.000006 -0.000006 -0.015342 -0.139959 -22.283900
0.000000 0.000000 0.000000 0.000000 0.000000 -0.000000 134.614000 88.473400 -40.227800 88.928900 -1.033150 4.848170 15.735700 0.000005 -0.000001 87.400500 80.310200 -88.413800 8.984550 -0.406207 -0.000000 11.587400 -0.905461 -1.933940 16.377300 -0.000001 -0.000001 3.653270 -4.856320 1.182870 6.456720 -0.000001 -0.000000 -1.234650 -5.094060 1.635290 12.994200 -0.242716 4.980390 -91.245600 4.155230 -73.297600 5.348090 -0.000007 -0.000001 -59.130600 34.042200 -23.627600 24.328600 0.000019 0.000005 8.286550 20.576400 -22.509500 22.291600 -0.000001 0.000005 11.811200 5.332140 -0.845468 12.994500 -0.242716 -4.980390 88.452500 9.016480 -80.219200 -5.348130 -0.000001 -0.000004 -65.141800 32.187300 -9.359480 -24.328900 0.000322 -0.000009 1.409960 3.156040 -24.103900 -22.291500 -0.000108 -0.000004 15.112100 5.458420 -4.943100 -2.192480 -6.469440 -0.000000 179.633000 -6.752210 -11.536400 39.081100 -0.000007 -0.000012 -0.327324 0.365371 41.856800 40.985400 -0.000006 -0.000013 2.232590 -2.388110 -76.009900 11.754300 -0.000000 0.000003 -0.000215 -0.001970 -16.651700 -2.192510 6.469440 -0.000001 176.650000 10.772700 164.960000 -39.081100 -0.002282 -0.040193 0.097365 -0.043969 64.978800 -40.985400 0.000008 0.000006 4.524690 -6.534980 -64.261900 -11.754300 -0.000006 -0.000006 -0.015243 -0.139342 -22.258600
0.000000 0.000000 0.000000 0.000000 0.000000 -0.000000 134.727000 88.799400 -38.573700 88.484000 -0.654274 4.686490 15.735700 0.000005 -0.000001 86.129600 80.393600 -86.965700 8.984550 -0.406207 -0.000000 11.395900 -1.312970 -1.540570 16.377300 -0.000001 -0.000001 3.574080 -5.008880 1.147500 6.456720 -0.000001 -0.000000 -0.991079 -5.121470 1.842320 12.994200 -0.242716 4.980390 -91.128200 3.815580 -73.515200 5.348090 -0.000007 -0.000001 -58.333500 33.281900 -25.306200 24.328600 0.000019 0.000005 8.650300 19.467500 -24.536400 22.291600 -0.000001 0.000005 12.739000 5.350930 -1.404340 12.994500 -0.242716 -4.980390 88.450100 8.903060 -80.083000 -5.348130 -0.000001 -0.000004 -66.064400 31.912200 -8.167320 -24.328900 0.000322 -0.000009 1.464580 3.425520 -23.181200 -22.291500 -0.000108 -0.000004 14.731600 5.457700 -4.916910 -2.192480 -6.469440 -0.000000 -179.786000 -7.092750 -9.555080 39.081100 -0.000007 -0.000012 -0.316817 0.376608 40.072500 40.985400 -0.000006 -0.000013 2.422940 -1.700330 -76.368200 11.754300 -0.000000 0.000003 -0.000221 -0.002015 -16.653300 -2.192510 6.469440 -0.000001 178.134000 11.504700 163.075000 -39.081100 -0.002282 -0.040193 0.077353 -0.039747 61.811900 -40.985400 0.000008 0.000006 4.643100 -6.955720 -65.373900 -11.754300 -0.000006 -0.000006 -0.015211 -0.139144 -22.250500
0.000000 0.000000 0.000000 0.000000 0.000000 -0.000000 134.804000 89.110600 -37.070800 88.070100 -0.246282 4.274550 15.735700 0.000005 -0.000001 85.025600 80.517700 -85.650200 8.984550 -0.406207 -0.000000 11.121800 -1.650180 -1.088120 16.377300 -0.000001 -0.000001 3.457360 -5.232780 1.073670 6.456720 -0.000001 -0.000000 -0.838396 -5.201570 2.034060 12.994200 -0.242716 4.980390 -91.003900 3.453630 -73.781800 5.348090 -0.000007 -0.000001 -57.637800 32.663200 -26.799000 24.328600 0.000019 0.000005 8.748210 17.861200 -26.645100 22.291600 -0.000001 0.000005 13.472400 5.363810 -1.795300 12.994500 -0.242716 -4.980390 88.445500 8.781720 -79.920500 -5.348130 -0.000001 -0.000004 -66.741200 31.448400 -7.230450 -24.328900 0.000322 -0.000009 1.591720 3.855860 -22.465800 -22.291500 -0.000108 -0.000004 14.396100 5.451000 -4.675350 -2.192480 -6.469440 -0.000000 -179.432000 -7.239160 -8.009520 39.081100 -0.000007 -0.000012 -0.218842 0.276612 38.349800 40.985400 -0.000006 -0.000013 3.669550 -1.647270 -76.627000 11.754300 -0.000000 0.000003 -0.678363 -0.900757 -16.073300 -2.192510 6.469440 -0.000001 179.771000 12.769700 161.162000 -39.081100 -0.002282 -0.040193 0.060345 -0.037317 56.846200 -40.985400 0.000008 0.000006 3.983870 -7.417340 -65.625600 -11.754300 -0.000006 -0.000006 -0.013811 -0.130195 -21.883300
0.000000 0.000000 0.000000 0.000000 0.000000 -0.000000 134.839000 89.347300 -35.608300 87.849600 0.136939 3.757370 15.735700 0.000005 -0.000001 84.035800 80.610800 -84.509300 8.984550 -0.406207 -0.000000 10.907300 -1.949800 -0.760411 16.377300 -0.000001 -0.000001 3.228620 -5.427420 1.073240 6.456720 -0.000001 -0.000000 -0.854018 -5.302040 2.186100 12.994200 -0.242716 4.980390 -90.909300 3.166870 -73.971300 5.348090 -0.000007 -0.000001 -56.638100 32.246500 -28.420100 24.328600 0.000019 0.000005 8.731460 16.340500 -28.630400 22.291600 -0.000001 0.000005 13.947400 5.376060 -2.175030 12.994500 -0.242716 -4.980390 88.423500 8.791300 -79.791600 -5.348130 -0.000001 -0.000004 -67.097200 30.975300 -6.750010 -24.328900 0.000322 -0.000009 1.633350 4.098240 -21.765000 -22.291500 -0.000108 -0.000004 14.382500 5.448690 -4.593010 -2.192480 -6.469440 -0.000000 -179.356000 -7.266230 -6.659790 39.081100 -0.000007 -0.000012 -0.070545 0.094611 36.710000 40.985400 -0.000006 -0.000013 5.241080 -1.829560 -76.898300 11.754300 -0.000000 0.000003 -1.584810 -2.091420 -15.313700 -2.192510 6.469440 -0.000001 -178.514000 14.685500 159.239000 -39.081100 -0.002282 -0.040193 0.045578 -0.034096 51.152300 -40.985400 0.000008 0.000006 3.398750 -8.167390 -65.244000 -11.754300 -0.000006 -0.000006 -0.015430 -0.140507 -22.306400
0.000000 0.000000 0.000000 0.000000 0.000000 -0.000000 134.836000 89.480900 -34.144200 87.860200 0.512696 3.288870 15.735700 0.000005 -0.000001 83.162300 80.639900 -83.552600 8.984550 -0.406207 -0.000000 10.819500 -2.223000 -0.569559 16.377300 -0.000001 -0.000001 2.965690 -5.564090 1.072320 6.456720 -0.000001 -0.000000 -0.971565 -5.458940 2.391400 12.994200 -0.242716 4.980390 -90.844100 2.965010 -74.101900 5.348090 -0.000007 -0.000001 -55.566500 31.875200 -29.870900 24.328600 0.000019 0.000005 9.080270 15.553400 -30.796300 22.291600 -0.000001 0.000005 14.219500 5.379710 -2.289170 12.994500 -0.242716 -4.980390 88.402500 8.818080 -79.689500 -5.348130 -0.000001 -0.000004 -67.225400 30.565400 -6.651850 -24.328900 0.000322 -0.000009 1.658800 4.277350 -21.232800 -22.291500 -0.000108 -0.000004 14.386800 5.446080 -4.499980 -2.192480 -6.469440 -0.000000 -179.334000 -7.397990 -5.555450 39.081100 -0.000007 -0.000012 0.017217 -0.024046 35.599700 40.985400 -0.000006 -0.000013 6.233800 -1.583370 -76.889800 11.754300 -0.000000 0.000003 -1.784870 -2.348200 -15.674400 -2.192510 6.469440 -0.000001 -176.744000 16.879200 157.389000 -39.081100 -0.002282 -0.040193 0.033030 -0.029059 45.690400 -40.985400 0.000008 0.000006 3.409610 -8.006810 -65.289900 -11.754300 -0.000006 -0.000006 -0.015575 -0.141411 -22.343600
0.000000 0.000000 0.000000 0.000000 0.000000 -0.000000 134.827000 89.509000 -32.614200 88.037200 0.870940 2.916270 15.735700 0.000005 -0.000001 82.432100 80.610900 -82.788400 8.984550 -0.406207 -0.000000 10.848300 -2.464660 -0.478323 16.377300 -0.000001 -0.000001 2.717110 -5.711010 1.127600 6.456720 -0.000001 -0.000000 -1.111210 -5.591630 2.547020 12.994200 -0.242716 4.980390 -90.790600 2.805190 -74.254300 5.348090 -0.000007 -0.000001 -54.756500 31.362700 -30.865800 24.328600 0.000019 0.000005 9.898760 15.583200 -33.007300 22.291600 -0.000001 0.000005 14.393500 5.374240 -2.118360 12.994500 -0.242716 -4.980390 88.393800 8.854410 -79.675800 -5.348130 -0.000001 -0.000004 -67.221600 30.291100 -6.894880 -24.328900 0.000322 -0.000009 1.622430 4.285250 -20.772500 -22.291500 -0.000108 -0.000004 14.473200 5.443960 -4.424830 -2.192480 -6.469440 -0.000000 -179.268000 -7.528080 -4.727710 39.081100 -0.000007 -0.000012 0.012554 -0.017834 35.140300 40.985400 -0.000006 -0.000013 5.820400 -0.867034 -76.534700 11.754300 -0.000000 0.000003 -1.878860 -2.473340 -16.719700 -2.192510 6.469440 -0.000001 -175.159000 18.825000 155.734000 -39.081100 -0.002282 -0.040193 0.023512 -0.023314 40.956300 -40.985400 0.000008 0.000006 2.980520 -5.024130 -65.266700 -11.754300 -0.000006 -0.000006 -0.015167 -0.138864 -22.239000
0.000000 0.000000 0.000000 0.000000 0.000000 -0.000000 134.832000 89.443700 -30.903800 88.284500 1.225230 2.572700 15.735700 0.000005 -0.000001 81.960100 80.569700 -82.271900 8.984550 -0.406207 -0.000000 10.910400 -2.627030 -0.372433 16.377300 -0.000001 -0.000001 2.537160 -5.841620 1.158610 6.456720 -0.000001 -0.000000 -1.256710 -5.741680 2.592430 12.994200 -0.242716 4.980390 -90.758900 2.723570 -74.423800 5.348090 -0.000007 -0.000001 -54.339400 30.874900 -31.390800 24.328600 0.000019 0.000005 10.386400 15.331800 -34.729900 22.291600 -0.000001 0.000005 14.784500 5.372890 -2.076350 12.994500 -0.242716 -4.980390 88.393800 8.859850 -79.681700 -5.348130 -0.000001 -0.000004 -67.023900 30.270300 -7.443380 -24.328900 0.000322 -0.000009 1.636780 4.404730 -20.420400 -22.291500 -0.000108 -0.000004 14.635500 5.443370 -4.404130 -2.192480 -6.469440 -0.000000 -179.246000 -7.696800 -3.873320 39.081100 -0.000007 -0.000012 0.010750 -0.015336 35.026600 40.985400 -0.000006 -0.000013 5.596870 -0.220886 -76.562300 11.754300 -0.000000 0.000003 -1.746460 -2.255620 -17.118700 -2.192510 6.469440 -0.000001 -173.908000 19.945400 154.387000 -39.081100 -0.002282 -0.040193 0.013718 -0.013840 37.007600 -40.985400 0.000008 0.000006 1.766990 -0.166880 -65.003000 -11.754300 -0.000006 -0.000006 -0.015342 -0.139962 -22.284000
